<?xml version="1.0" encoding="utf-8"?>
<!-- Generator: Adobe Illustrator 18.0.0, SVG Export Plug-In . SVG Version: 6.00 Build 0)  -->
<!DOCTYPE svg PUBLIC "-//W3C//DTD SVG 1.1//EN" "http://www.w3.org/Graphics/SVG/1.1/DTD/svg11.dtd">
<svg version="1.1" id="Layer_1" xmlns="http://www.w3.org/2000/svg" xmlns:xlink="http://www.w3.org/1999/xlink" x="0px" y="0px"
	 viewBox="0 0 264 47" enable-background="new 0 0 264 47" xml:space="preserve">
<g>
	<g>
		<path fill="#764EBE" d="M51.5,14.4h5L62,29.9l5.6-15.5h4.8l-8.1,20.5h-4.8L51.5,14.4z"/>
		<path fill="#764EBE" d="M84.4,20c1.3,0.7,2.3,1.6,3,2.8c0.7,1.2,1.1,2.6,1.1,4.2c0,1.6-0.4,3-1.1,4.2c-0.7,1.2-1.7,2.2-3,2.8
			c-1.3,0.7-2.7,1-4.4,1c-1.7,0-3.2-0.3-4.4-1c-1.3-0.7-2.3-1.6-3-2.8c-0.7-1.2-1.1-2.6-1.1-4.2c0-1.6,0.4-3,1.1-4.2
			c0.7-1.2,1.7-2.1,3-2.8c1.3-0.7,2.8-1,4.4-1C81.6,19,83.1,19.3,84.4,20z M77.1,24c-0.7,0.8-1.1,1.8-1.1,3.1c0,1.3,0.4,2.3,1.1,3.1
			c0.7,0.8,1.7,1.2,2.9,1.2c1.2,0,2.1-0.4,2.8-1.2c0.7-0.8,1.1-1.8,1.1-3.1c0-1.3-0.4-2.3-1.1-3.1c-0.7-0.8-1.7-1.2-2.8-1.2
			C78.8,22.8,77.8,23.2,77.1,24z"/>
		<path fill="#764EBE" d="M106.3,19.1v15.8h-4.5v-2.8c-1.1,2-2.8,3-5.3,3c-1.7,0-3.1-0.5-4.1-1.6c-1-1.1-1.5-2.6-1.5-4.4v-9.9h4.5
			v8.6c0,1,0.3,1.8,0.8,2.3c0.5,0.6,1.2,0.8,2.2,0.8c1.1,0,1.9-0.4,2.5-1.1c0.6-0.7,0.9-1.7,0.9-2.9v-7.8H106.3z"/>
		<path fill="#764EBE" d="M117.7,22.8c-1.1,0-2.1,0.4-2.8,1.2c-0.7,0.8-1.1,1.8-1.1,3.1c0,1.3,0.4,2.3,1.1,3.1
			c0.7,0.8,1.6,1.2,2.7,1.2c1.6,0,2.9-0.6,3.7-1.8l3.1,2.1c-0.7,1.1-1.6,2-2.8,2.6c-1.2,0.6-2.6,0.9-4.2,0.9c-1.6,0-3-0.3-4.2-1
			c-1.2-0.7-2.2-1.6-2.8-2.8c-0.7-1.2-1-2.6-1-4.2c0-1.6,0.3-3,1-4.2c0.7-1.2,1.6-2.2,2.8-2.8c1.2-0.7,2.6-1,4.2-1
			c1.5,0,2.8,0.3,4,0.9c1.2,0.6,2.1,1.4,2.8,2.4l-3,2.2C120.3,23.4,119.1,22.8,117.7,22.8z"/>
		<path fill="#764EBE" d="M141.5,20.6c1,1.1,1.6,2.6,1.6,4.4v9.9h-4.5v-8.6c0-1-0.3-1.8-0.8-2.4c-0.6-0.6-1.3-0.9-2.3-0.9
			c-1.1,0-2,0.4-2.7,1.2c-0.7,0.8-1,1.7-1,2.9v7.8h-4.5V13.2h4.5v8.8c1.1-1.9,2.9-2.9,5.4-3C139.1,19,140.5,19.5,141.5,20.6z"/>
		<path fill="#764EBE" d="M159.5,21.2c1.3,1.5,2,3.5,2,6.1c0,0.5,0,0.8,0,1.1h-11.3c0.3,1,0.7,1.8,1.5,2.3c0.7,0.6,1.6,0.8,2.6,0.8
			c0.7,0,1.5-0.1,2.1-0.4c0.7-0.3,1.3-0.7,1.8-1.2l2.4,2.4c-0.8,0.9-1.8,1.6-2.9,2.1c-1.1,0.5-2.4,0.7-3.8,0.7c-1.7,0-3.1-0.3-4.3-1
			c-1.2-0.7-2.2-1.6-2.9-2.8c-0.7-1.2-1-2.6-1-4.2c0-1.6,0.3-3,1-4.2c0.7-1.2,1.6-2.2,2.9-2.8c1.2-0.7,2.6-1,4.2-1
			C156.3,19,158.2,19.7,159.5,21.2z M157.2,25.7c0-1-0.4-1.9-1-2.5c-0.6-0.6-1.5-0.9-2.5-0.9c-1,0-1.8,0.3-2.4,0.9
			c-0.7,0.6-1.1,1.4-1.2,2.5H157.2z"/>
		<path fill="#764EBE" d="M171.1,19.8c0.9-0.5,1.9-0.8,3.1-0.8v4.2c-0.2,0-0.4,0-0.7,0c-1.4,0-2.5,0.4-3.3,1.1
			c-0.8,0.8-1.2,1.8-1.2,3v7.6h-4.5V19.1h4.5V22C169.5,21,170.2,20.3,171.1,19.8z"/>
		<path fill="#2A2A30" d="M174.7,14.4h17.1v3.9h-6.3v16.6h-4.6V18.3h-6.2V14.4z"/>
		<path fill="#2A2A30" d="M203.8,20c1.3,0.7,2.3,1.6,3,2.8c0.7,1.2,1.1,2.6,1.1,4.2c0,1.6-0.4,3-1.1,4.2c-0.7,1.2-1.7,2.2-3,2.8
			c-1.3,0.7-2.7,1-4.4,1c-1.7,0-3.2-0.3-4.4-1c-1.3-0.7-2.3-1.6-3-2.8c-0.7-1.2-1.1-2.6-1.1-4.2c0-1.6,0.4-3,1.1-4.2
			c0.7-1.2,1.7-2.1,3-2.8c1.3-0.7,2.8-1,4.4-1C201.1,19,202.5,19.3,203.8,20z M196.6,24c-0.7,0.8-1.1,1.8-1.1,3.1
			c0,1.3,0.4,2.3,1.1,3.1c0.7,0.8,1.7,1.2,2.9,1.2c1.2,0,2.1-0.4,2.8-1.2c0.7-0.8,1.1-1.8,1.1-3.1c0-1.3-0.4-2.3-1.1-3.1
			c-0.7-0.8-1.7-1.2-2.8-1.2C198.2,22.8,197.3,23.2,196.6,24z"/>
		<path fill="#2A2A30" d="M225.7,16.3c1.4,1.2,2.1,3,2.1,5.3c0,2.4-0.7,4.2-2.2,5.6c-1.4,1.3-3.5,2-6,2h-4.1v5.9h-4.6V14.4h8.7
			C222.2,14.4,224.3,15,225.7,16.3z M222.4,24.3c0.7-0.6,1-1.5,1-2.6c0-1.1-0.3-2-1-2.6c-0.7-0.6-1.7-0.9-3-0.9h-3.8v6.9h3.8
			C220.7,25.2,221.7,24.9,222.4,24.3z"/>
		<path fill="#2A2A30" d="M239.8,34.9v-1.8c-0.5,0.7-1.2,1.2-2.1,1.5c-0.8,0.4-1.8,0.5-2.9,0.5c-1.7,0-3-0.5-4-1.4
			c-1-0.9-1.5-2.1-1.5-3.6c0-1.5,0.5-2.6,1.6-3.5c1-0.8,2.5-1.3,4.4-1.3h4.3v-0.3c0-0.8-0.3-1.5-0.8-1.9c-0.6-0.5-1.4-0.7-2.4-0.7
			c-1.5,0-3,0.5-4.7,1.4l-1.4-3.1c1.2-0.6,2.4-1.1,3.5-1.4c1.1-0.3,2.3-0.4,3.6-0.4c2.1,0,3.7,0.5,4.9,1.5c1.2,1,1.8,2.4,1.8,4.2
			l0,10.3H239.8z M238.6,31.2c0.7-0.4,1.1-1,1.2-1.7v-1.4h-3.5c-0.9,0-1.5,0.1-1.9,0.4c-0.4,0.3-0.6,0.7-0.6,1.4
			c0,0.6,0.2,1.1,0.7,1.4c0.4,0.4,1,0.5,1.8,0.5C237.1,31.9,237.9,31.7,238.6,31.2z"/>
		<path fill="#2A2A30" d="M249.7,40.8c-0.8,0-1.6-0.1-2.3-0.4c-0.7-0.2-1.3-0.6-2-1.2l1.9-3.3c0.7,0.6,1.4,0.8,2.1,0.8
			c1,0,1.6-0.5,2.1-1.4l0.4-0.9l-6.5-15.4h4.7l4.1,10.8l3.7-10.8h4.5l-6.9,17.5C254.4,39.4,252.5,40.8,249.7,40.8z"/>
	</g>
	<g>
		<g>
			<polygon fill="#764EBE" points="8.7,17.7 11.6,33.8 2.4,23.1 			"/>
			<polygon fill="#764EBE" points="31.7,15.2 18.6,32.9 15,12.3 23.2,5.3 			"/>
			<polygon fill="#764EBE" points="41,26 20.2,43.8 19.1,42.5 36.1,20.4 			"/>
		</g>
	</g>
</g>
</svg>
