<?xml version="1.0" encoding="utf-8"?>
<!-- Generator: Adobe Illustrator 18.0.0, SVG Export Plug-In . SVG Version: 6.00 Build 0)  -->
<!DOCTYPE svg PUBLIC "-//W3C//DTD SVG 1.1//EN" "http://www.w3.org/Graphics/SVG/1.1/DTD/svg11.dtd">
<svg version="1.1" xmlns="http://www.w3.org/2000/svg" xmlns:xlink="http://www.w3.org/1999/xlink" x="0px" y="0px"
	 viewBox="0 0 264 47" enable-background="new 0 0 264 47" xml:space="preserve">
<g id="Layer_2" display="none">
	<rect x="-343" y="-102.3" display="inline" fill="#2A2A30" width="954.7" height="234"/>
</g>
<g id="Layer_1">
	<g>
		<g>
			<path fill="#79D5CA" d="M51,13.3h5l5.6,15.5l5.6-15.5H72l-8.1,20.5h-4.8L51,13.3z"/>
			<path fill="#79D5CA" d="M83.9,18.9c1.3,0.7,2.3,1.6,3,2.8C87.6,23,88,24.4,88,26c0,1.6-0.4,3-1.1,4.2c-0.7,1.2-1.7,2.2-3,2.8
				c-1.3,0.7-2.7,1-4.4,1c-1.7,0-3.2-0.3-4.4-1c-1.3-0.7-2.3-1.6-3-2.8c-0.7-1.2-1.1-2.6-1.1-4.2c0-1.6,0.4-3,1.1-4.2
				c0.7-1.2,1.7-2.1,3-2.8c1.3-0.7,2.8-1,4.4-1C81.2,17.9,82.7,18.3,83.9,18.9z M76.7,22.9c-0.7,0.8-1.1,1.8-1.1,3.1
				c0,1.3,0.4,2.3,1.1,3.1c0.7,0.8,1.7,1.2,2.9,1.2c1.2,0,2.1-0.4,2.8-1.2c0.7-0.8,1.1-1.8,1.1-3.1c0-1.3-0.4-2.3-1.1-3.1
				c-0.7-0.8-1.7-1.2-2.8-1.2C78.4,21.7,77.4,22.1,76.7,22.9z"/>
			<path fill="#79D5CA" d="M105.9,18.1v15.8h-4.5v-2.8c-1.1,2-2.8,3-5.3,3c-1.7,0-3.1-0.5-4.1-1.6c-1-1.1-1.5-2.6-1.5-4.4v-9.9H95
				v8.6c0,1,0.3,1.8,0.8,2.3c0.5,0.6,1.2,0.8,2.2,0.8c1.1,0,1.9-0.4,2.5-1.1c0.6-0.7,0.9-1.7,0.9-2.9v-7.8H105.9z"/>
			<path fill="#79D5CA" d="M117.3,21.8c-1.1,0-2.1,0.4-2.8,1.2c-0.7,0.8-1.1,1.8-1.1,3.1c0,1.3,0.4,2.3,1.1,3.1
				c0.7,0.8,1.6,1.2,2.7,1.2c1.6,0,2.9-0.6,3.7-1.8l3.1,2.1c-0.7,1.1-1.6,2-2.8,2.6c-1.2,0.6-2.6,0.9-4.2,0.9c-1.6,0-3-0.3-4.2-1
				c-1.2-0.7-2.2-1.6-2.8-2.8c-0.7-1.2-1-2.6-1-4.2c0-1.6,0.3-3,1-4.2c0.7-1.2,1.6-2.2,2.8-2.8c1.2-0.7,2.6-1,4.2-1
				c1.5,0,2.8,0.3,4,0.9c1.2,0.6,2.1,1.4,2.8,2.4l-3,2.2C119.9,22.3,118.7,21.8,117.3,21.8z"/>
			<path fill="#79D5CA" d="M141.1,19.6c1,1.1,1.6,2.6,1.6,4.4v9.9h-4.5v-8.6c0-1-0.3-1.8-0.8-2.4c-0.6-0.6-1.3-0.9-2.3-0.9
				c-1.1,0-2,0.4-2.7,1.2c-0.7,0.8-1,1.7-1,2.9v7.8h-4.5V12.1h4.5v8.8c1.1-1.9,2.9-2.9,5.4-3C138.7,17.9,140.1,18.5,141.1,19.6z"/>
			<path fill="#79D5CA" d="M159.1,20.1c1.3,1.5,2,3.5,2,6.1c0,0.5,0,0.8,0,1.1h-11.3c0.3,1,0.7,1.8,1.5,2.3c0.7,0.6,1.6,0.8,2.6,0.8
				c0.7,0,1.5-0.1,2.1-0.4c0.7-0.3,1.3-0.7,1.8-1.2l2.4,2.4c-0.8,0.9-1.8,1.6-2.9,2.1c-1.1,0.5-2.4,0.7-3.8,0.7
				c-1.7,0-3.1-0.3-4.3-1c-1.2-0.7-2.2-1.6-2.9-2.8c-0.7-1.2-1-2.6-1-4.2c0-1.6,0.3-3,1-4.2c0.7-1.2,1.6-2.2,2.9-2.8
				c1.2-0.7,2.6-1,4.2-1C155.9,17.9,157.8,18.7,159.1,20.1z M156.8,24.7c0-1-0.4-1.9-1-2.5c-0.6-0.6-1.5-0.9-2.5-0.9
				c-1,0-1.8,0.3-2.4,0.9c-0.7,0.6-1.1,1.4-1.2,2.5H156.8z"/>
			<path fill="#79D5CA" d="M170.7,18.7c0.9-0.5,1.9-0.8,3.1-0.8v4.2c-0.2,0-0.4,0-0.7,0c-1.4,0-2.5,0.4-3.3,1.1
				c-0.8,0.8-1.2,1.8-1.2,3v7.6H164V18.1h4.5v2.8C169.1,20,169.8,19.2,170.7,18.7z"/>
			<path fill="#FFFFFF" d="M174.3,13.3h17.1v3.9h-6.3v16.6h-4.6V17.3h-6.2V13.3z"/>
			<path fill="#FFFFFF" d="M203.4,18.9c1.3,0.7,2.3,1.6,3,2.8c0.7,1.2,1.1,2.6,1.1,4.2c0,1.6-0.4,3-1.1,4.2c-0.7,1.2-1.7,2.2-3,2.8
				c-1.3,0.7-2.7,1-4.4,1c-1.7,0-3.2-0.3-4.4-1c-1.3-0.7-2.3-1.6-3-2.8c-0.7-1.2-1.1-2.6-1.1-4.2c0-1.6,0.4-3,1.1-4.2
				c0.7-1.2,1.7-2.1,3-2.8c1.3-0.7,2.8-1,4.4-1C200.7,17.9,202.1,18.3,203.4,18.9z M196.1,22.9c-0.7,0.8-1.1,1.8-1.1,3.1
				c0,1.3,0.4,2.3,1.1,3.1c0.7,0.8,1.7,1.2,2.9,1.2c1.2,0,2.1-0.4,2.8-1.2c0.7-0.8,1.1-1.8,1.1-3.1c0-1.3-0.4-2.3-1.1-3.1
				c-0.7-0.8-1.7-1.2-2.8-1.2C197.8,21.7,196.9,22.1,196.1,22.9z"/>
			<path fill="#FFFFFF" d="M225.3,15.2c1.4,1.2,2.1,3,2.1,5.3c0,2.4-0.7,4.2-2.2,5.6c-1.4,1.3-3.5,2-6,2h-4.1v5.9h-4.6V13.3h8.7
				C221.8,13.3,223.8,14,225.3,15.2z M222,23.2c0.7-0.6,1-1.5,1-2.6c0-1.1-0.3-2-1-2.6c-0.7-0.6-1.7-0.9-3-0.9h-3.8v6.9h3.8
				C220.3,24.1,221.3,23.8,222,23.2z"/>
			<path fill="#FFFFFF" d="M239.4,33.8V32c-0.5,0.7-1.2,1.2-2.1,1.5c-0.8,0.4-1.8,0.5-2.9,0.5c-1.7,0-3-0.5-4-1.4
				c-1-0.9-1.5-2.1-1.5-3.6c0-1.5,0.5-2.6,1.6-3.5c1-0.8,2.5-1.3,4.4-1.3h4.3v-0.3c0-0.8-0.3-1.5-0.8-1.9c-0.6-0.5-1.4-0.7-2.4-0.7
				c-1.5,0-3,0.5-4.7,1.4l-1.4-3.1c1.2-0.6,2.4-1.1,3.5-1.4c1.1-0.3,2.3-0.4,3.6-0.4c2.1,0,3.7,0.5,4.9,1.5c1.2,1,1.8,2.4,1.8,4.2
				l0,10.3H239.4z M238.2,30.2c0.7-0.4,1.1-1,1.2-1.7v-1.4h-3.5c-0.9,0-1.5,0.1-1.9,0.4c-0.4,0.3-0.6,0.7-0.6,1.4
				c0,0.6,0.2,1.1,0.7,1.4c0.4,0.4,1,0.5,1.8,0.5C236.7,30.8,237.5,30.6,238.2,30.2z"/>
			<path fill="#FFFFFF" d="M249.3,39.7c-0.8,0-1.6-0.1-2.3-0.4c-0.7-0.2-1.3-0.6-2-1.2l1.9-3.3c0.7,0.6,1.4,0.8,2.1,0.8
				c1,0,1.6-0.5,2.1-1.4l0.4-0.9L245,18.1h4.7l4.1,10.8l3.7-10.8h4.5l-6.9,17.5C254,38.4,252.1,39.7,249.3,39.7z"/>
		</g>
		<g>
			<g>
				<polygon fill="#79D5CA" points="8.3,16.7 11.2,32.8 2,22.1 				"/>
				<polygon fill="#79D5CA" points="31.3,14.2 18.2,31.9 14.6,11.3 22.8,4.3 				"/>
				<polygon fill="#79D5CA" points="40.6,25 19.8,42.8 18.7,41.5 35.7,19.4 				"/>
			</g>
		</g>
	</g>
</g>
</svg>
